<svg xmlns="http://www.w3.org/2000/svg" version="1.1" xmlns:xlink="http://www.w3.org/1999/xlink" xmlns:svgjs="http://svgjs.dev/svgjs" width="1000" height="313" viewBox="0 0 1000 313"><g transform="matrix(1,0,0,1,-0.6060606060606233,-0.36471961183787016)"><svg viewBox="0 0 396 124" data-background-color="#ffffff" preserveAspectRatio="xMidYMid meet" height="313" width="1000" xmlns="http://www.w3.org/2000/svg" xmlns:xlink="http://www.w3.org/1999/xlink"><g id="tight-bounds" transform="matrix(1,0,0,1,0.2400000000000091,0.1444895586833752)"><svg viewBox="0 0 395.52 123.71102088263324" height="123.71102088263324" width="395.52"><g><svg viewBox="0 0 600.6232486723923 187.86335775461504" height="123.71102088263324" width="395.52"><g transform="matrix(1,0,0,1,0,25.9637491542196)"><svg viewBox="0 0 395.52 135.93585944617584" height="135.93585944617584" width="395.52"><g id="textblocktransform"><svg viewBox="0 0 395.52 135.93585944617584" height="135.93585944617584" width="395.52" id="textblock"><g><svg viewBox="0 0 395.52 73.02686811779768" height="73.02686811779768" width="395.52"><g transform="matrix(1,0,0,1,0,0)"><svg width="395.52" viewBox="4.35 -35.65 195.24 36.05" height="73.02686811779768" data-palette-color="#228be6"><path d="M12.55-18.1L31.9 0 26.6 0 8.45-16.75 8.45 0 4.35 0 4.35-35.25 8.45-35.25 8.45-19.05 25.75-35.25 30.95-35.25 12.55-18.1ZM49.05 0.4Q44.15 0.4 40.52-1.8 36.9-4 34.95-8.05 33-12.1 33-17.6L33-17.6Q33-23.15 34.92-27.23 36.85-31.3 40.47-33.48 44.1-35.65 49.05-35.65L49.05-35.65Q54-35.65 57.62-33.48 61.25-31.3 63.17-27.23 65.1-23.15 65.1-17.65L65.1-17.65Q65.1-12.15 63.15-8.08 61.2-4 57.57-1.8 53.95 0.4 49.05 0.4L49.05 0.4ZM49.05-3.1Q54.65-3.1 57.77-6.88 60.9-10.65 60.9-17.65L60.9-17.65Q60.9-24.65 57.8-28.4 54.7-32.15 49.05-32.15L49.05-32.15Q43.45-32.15 40.32-28.38 37.2-24.6 37.2-17.65L37.2-17.65Q37.2-10.7 40.32-6.9 43.45-3.1 49.05-3.1L49.05-3.1ZM89.25-9.7L102.45-35.25 105.8-35.25 105.8 0 102.05 0 102.1-27.3 90.65-5.6 87.75-5.6 76.25-27.1 76.3 0 72.5 0 72.5-35.25 75.9-35.25 89.25-9.7ZM118.64 0L114.54 0 114.54-35.25 118.64-35.25 118.64 0ZM139.99 0L135.84 0 135.84-31.75 123.59-31.75 123.59-35.25 152.29-35.25 152.29-31.75 139.99-31.75 139.99 0ZM161.34 0L157.24 0 157.24-35.25 161.34-35.25 161.34 0ZM170.04 0L170.04-35.25 181.89-35.25Q190.34-35.25 194.96-30.68 199.59-26.1 199.59-17.65L199.59-17.65Q199.59-9.2 194.96-4.6 190.34 0 181.89 0L181.89 0 170.04 0ZM174.14-3.5L181.64-3.5Q195.34-3.5 195.34-17.65L195.34-17.65Q195.34-31.75 181.64-31.75L181.64-31.75 174.14-31.75 174.14-3.5Z" opacity="1" transform="matrix(1,0,0,1,0,0)" fill="#228be6" class="undefined-text-0" data-fill-palette-color="primary" id="text-0"></path></svg></g></svg></g><g transform="matrix(1,0,0,1,0,90.26675903557488)"><svg viewBox="0 0 395.52 45.66910041060096" height="45.66910041060096" width="395.52"><g transform="matrix(1,0,0,1,0,0)"><svg width="395.52" viewBox="3.25 -35 401.85 46.4" height="45.66910041060096" data-palette-color="#228be6"><path d="M3.25 0L3.25-24 11.9-24Q17.45-24 19.85-22.35L19.85-22.35Q22-20.9 22.58-18.88 23.15-16.85 23.15-13.55L23.15-13.55 23.15 0 18.75 0 18.75-13.5Q18.75-14.4 18.7-15.03 18.65-15.65 18.35-16.63 18.05-17.6 17.5-18.23 16.95-18.85 15.9-19.33 14.85-19.8 13.35-19.8L13.35-19.8 7.65-19.8 7.65 0 3.25 0ZM40.9-24.5L40.9-24.5Q49.4-24.15 49.4-17.45L49.4-17.45Q49.4-9.1 38.45-9.1L38.45-9.1 36.4-9.1 36.4-12.95 38.8-12.95Q42.15-12.95 43.45-13.98 44.75-15 44.75-17.4L44.75-17.4Q44.75-18.95 43.6-19.73 42.45-20.5 40.65-20.5L40.65-20.5Q37.1-20.5 35.08-18 33.05-15.5 33.05-12L33.05-12Q33.05-8.3 35.23-6 37.4-3.7 40.9-3.7L40.9-3.7Q44.05-3.7 46.05-5.25L46.05-5.25 49.05-2.3Q45.6 0.5 40.9 0.5L40.9 0.5Q35.2 0.5 31.8-2.85 28.4-6.2 28.4-11.5L28.4-11.5Q28.4-17.4 31.75-21.05 35.1-24.7 40.9-24.5ZM63 0.55L63 0.55Q58.7-3.5 56.68-8.4 54.65-13.3 52.65-24L52.65-24 57.25-24Q59.2-11.95 63-5.75L63-5.75Q66.8-11.95 68.75-24L68.75-24 73.35-24Q71.35-13.3 69.33-8.4 67.3-3.5 63 0.55ZM89.35-24.5L89.35-24.5Q97.85-24.15 97.85-17.45L97.85-17.45Q97.85-9.1 86.9-9.1L86.9-9.1 84.85-9.1 84.85-12.95 87.25-12.95Q90.6-12.95 91.9-13.98 93.2-15 93.2-17.4L93.2-17.4Q93.2-18.95 92.05-19.73 90.9-20.5 89.1-20.5L89.1-20.5Q85.55-20.5 83.53-18 81.5-15.5 81.5-12L81.5-12Q81.5-8.3 83.68-6 85.85-3.7 89.35-3.7L89.35-3.7Q92.5-3.7 94.5-5.25L94.5-5.25 97.5-2.3Q94.05 0.5 89.35 0.5L89.35 0.5Q83.65 0.5 80.25-2.85 76.85-6.2 76.85-11.5L76.85-11.5Q76.85-17.4 80.2-21.05 83.55-24.7 89.35-24.5ZM106.5 0L102.1 0 102.1-13.65Q102.1-19.4 104.25-21.6L104.25-21.6Q105.3-22.7 106.8-23.25 108.3-23.8 109.43-23.9 110.55-24 112.5-24L112.5-24 116.9-24 116.9-19.8 111.6-19.8Q110.6-19.8 110.05-19.75 109.5-19.7 108.75-19.4 108-19.1 107.45-18.45L107.45-18.45Q106.5-17.25 106.5-13.65L106.5-13.65 106.5 0ZM131.8-12L131.8-35 136.3-35 136.3-12Q136.3-8.05 138.33-5.88 140.35-3.7 143.9-3.7L143.9-3.7Q147.6-3.7 149.7-5.83 151.8-7.95 151.8-12L151.8-12Q151.8-15.85 149.53-18.07 147.25-20.3 143.55-20.3L143.55-20.3Q140.4-20.3 138.1-18.5L138.1-18.5 138.1-23Q140.85-24.5 144.05-24.5L144.05-24.5Q149.35-24.5 152.83-21.08 156.3-17.65 156.3-12L156.3-12Q156.3-6.05 152.68-2.78 149.05 0.5 143.55 0.5L143.55 0.5Q138.3 0.5 135.05-2.9 131.8-6.3 131.8-12L131.8-12ZM173.3-24.5L173.3-24.5Q181.8-24.15 181.8-17.45L181.8-17.45Q181.8-9.1 170.85-9.1L170.85-9.1 168.8-9.1 168.8-12.95 171.2-12.95Q174.55-12.95 175.85-13.98 177.15-15 177.15-17.4L177.15-17.4Q177.15-18.95 176-19.73 174.85-20.5 173.05-20.5L173.05-20.5Q169.5-20.5 167.48-18 165.45-15.5 165.45-12L165.45-12Q165.45-8.3 167.63-6 169.8-3.7 173.3-3.7L173.3-3.7Q176.45-3.7 178.45-5.25L178.45-5.25 181.45-2.3Q178 0.5 173.3 0.5L173.3 0.5Q167.6 0.5 164.2-2.85 160.8-6.2 160.8-11.5L160.8-11.5Q160.8-17.4 164.15-21.05 167.5-24.7 173.3-24.5ZM198.45-9.5L198.45-9.5 198.45-35 202.95-35 202.95-9.5Q202.95-7.7 203.38-6.58 203.8-5.45 204.7-4.98 205.6-4.5 206.45-4.35 207.3-4.2 208.7-4.2L208.7-4.2 208.7 0Q203.1 0 200.78-2.15 198.45-4.3 198.45-9.5ZM225.3-14.1L225.3-14.1 225.3-9.6Q223.4-11.05 220.65-11.05L220.65-11.05Q218.3-11.05 217-10.13 215.7-9.2 215.7-7.5L215.7-7.5Q215.7-4.2 220.6-4.2L220.6-4.2 227.2-4.2 227.2-13.75Q227.2-19.8 221.3-19.8L221.3-19.8 213.3-19.8 213.3-24 221.55-24Q226.4-24 229-21.6 231.6-19.2 231.6-14.7L231.6-14.7 231.6 0 220.45 0Q216.2 0 213.7-1.9 211.2-3.8 211.2-7.45 211.2-11.1 213.85-13 216.5-14.9 220.5-14.9L220.5-14.9Q222.75-14.9 225.3-14.1ZM239.05-19.8L234.6-19.8 243.55-28.75 243.55-24 250.3-24 250.3-19.8 243.55-19.8 243.55-9.5Q243.55-7.75 244.13-6.6 244.7-5.45 245.8-4.98 246.9-4.5 247.88-4.35 248.85-4.2 250.3-4.2L250.3-4.2 250.3 0Q244.55 0 241.8-2.2 239.05-4.4 239.05-9.5L239.05-9.5 239.05-19.8ZM266.8-24.5L266.8-24.5Q275.3-24.15 275.3-17.45L275.3-17.45Q275.3-9.1 264.35-9.1L264.35-9.1 262.3-9.1 262.3-12.95 264.7-12.95Q268.05-12.95 269.35-13.98 270.65-15 270.65-17.4L270.65-17.4Q270.65-18.95 269.5-19.73 268.35-20.5 266.55-20.5L266.55-20.5Q263-20.5 260.98-18 258.95-15.5 258.95-12L258.95-12Q258.95-8.3 261.13-6 263.3-3.7 266.8-3.7L266.8-3.7Q269.95-3.7 271.95-5.25L271.95-5.25 274.95-2.3Q271.5 0.5 266.8 0.5L266.8 0.5Q261.1 0.5 257.7-2.85 254.3-6.2 254.3-11.5L254.3-11.5Q254.3-17.4 257.65-21.05 261-24.7 266.8-24.5ZM305.3-14.1L305.3-14.1 305.3-9.6Q303.4-11.05 300.65-11.05L300.65-11.05Q298.3-11.05 297-10.13 295.7-9.2 295.7-7.5L295.7-7.5Q295.7-4.2 300.6-4.2L300.6-4.2 307.2-4.2 307.2-13.75Q307.2-19.8 301.3-19.8L301.3-19.8 293.3-19.8 293.3-24 301.55-24Q306.4-24 309-21.6 311.6-19.2 311.6-14.7L311.6-14.7 311.6 0 300.45 0Q296.2 0 293.7-1.9 291.2-3.8 291.2-7.45 291.2-11.1 293.85-13 296.5-14.9 300.5-14.9L300.5-14.9Q302.75-14.9 305.3-14.1ZM328.25 0L328.25 0Q323.35 0 319.85-3.3 316.35-6.6 316.35-11.75L316.35-11.75Q316.35-16.95 319.87-20.48 323.4-24 328.6-24L328.6-24 340.35-24 340.35-0.7Q340.35 1.55 339.77 3.35 339.2 5.15 338.15 6.4 337.1 7.65 336.25 8.35 335.4 9.05 334.2 9.8L334.2 9.8Q331.1 11.4 326.65 11.4L326.65 11.4 321.05 11.4 321.05 7.2 326.2 7.2Q330.6 7.2 332.45 6.1L332.45 6.1Q335.85 4.2 335.85-0.2L335.85-0.2 335.85-19.8 328.6-19.8Q325.05-19.8 322.95-17.6 320.85-15.4 320.85-11.75L320.85-11.75Q320.85-8.25 323.02-6.23 325.2-4.2 328.25-4.2L328.25-4.2Q331.55-4.2 334.05-6L334.05-6 334.05-1.5Q331.35 0 328.25 0ZM359.95-14.1L359.95-14.1 359.95-9.6Q358.05-11.05 355.3-11.05L355.3-11.05Q352.95-11.05 351.65-10.13 350.35-9.2 350.35-7.5L350.35-7.5Q350.35-4.2 355.25-4.2L355.25-4.2 361.85-4.2 361.85-13.75Q361.85-19.8 355.95-19.8L355.95-19.8 347.95-19.8 347.95-24 356.2-24Q361.05-24 363.65-21.6 366.25-19.2 366.25-14.7L366.25-14.7 366.25 0 355.1 0Q350.85 0 348.35-1.9 345.85-3.8 345.85-7.45 345.85-11.1 348.5-13 351.15-14.9 355.15-14.9L355.15-14.9Q357.4-14.9 359.95-14.1ZM378.25-24L378.25 0 373.85 0 373.85-19.8 369.75-19.8 371.75-24 378.25-24ZM373.65-29L373.65-29Q373-29.85 373-30.85 373-31.85 373.65-32.68 374.3-33.5 375.65-33.5 377-33.5 377.65-32.68 378.3-31.85 378.3-30.85 378.3-29.85 377.65-29.03 377-28.2 375.65-28.2 374.3-28.2 373.65-29ZM385.2 0L385.2-24 393.85-24Q399.4-24 401.8-22.35L401.8-22.35Q403.95-20.9 404.52-18.88 405.1-16.85 405.1-13.55L405.1-13.55 405.1 0 400.7 0 400.7-13.5Q400.7-14.4 400.65-15.03 400.6-15.65 400.3-16.63 400-17.6 399.45-18.23 398.9-18.85 397.85-19.33 396.8-19.8 395.3-19.8L395.3-19.8 389.6-19.8 389.6 0 385.2 0Z" opacity="1" transform="matrix(1,0,0,1,0,0)" fill="#228be6" class="undefined-text-1" data-fill-palette-color="secondary" id="text-1"></path></svg></g></svg></g></svg></g></svg></g><g transform="matrix(1,0,0,1,412.75989091777717,0)"><svg viewBox="0 0 187.86335775461504 187.86335775461504" height="187.86335775461504" width="187.86335775461504"><g data-palette-color="#228be6"><rect width="51.349317786261444" height="187.86335775461504" fill="#228be6" stroke="transparent" data-fill-palette-color="accent" x="0" fill-opacity="1"></rect><rect width="51.349317786261444" height="187.86335775461504" fill="#228be6" stroke="transparent" data-fill-palette-color="accent" x="62.621119251538346" fill-opacity="0.75"></rect><rect width="51.349317786261444" height="187.86335775461504" fill="#228be6" stroke="transparent" data-fill-palette-color="accent" x="125.24223850307669" fill-opacity="0.5"></rect></g></svg></g></svg></g><defs></defs></svg><rect width="395.52" height="123.71102088263324" fill="none" stroke="none" visibility="hidden"></rect></g></svg></g></svg>